<?xml version="1.0" encoding="utf-8"?>
<!-- Generator: Adobe Illustrator 23.0.3, SVG Export Plug-In . SVG Version: 6.00 Build 0)  -->
<svg version="1.1" id="Capa_1" xmlns="http://www.w3.org/2000/svg" xmlns:xlink="http://www.w3.org/1999/xlink" x="0px" y="0px"
	 viewBox="0 0 384 384" style="enable-background:new 0 0 384 384;" xml:space="preserve">
<style type="text/css">
	.st0{fill:#0D378C;}
</style>
<g transform="translate(0.000000,384.000000) scale(0.100000,-0.100000)">
	<path class="st0" d="M1752,3779c-608-58-1128-393-1452-933c-98-163-184-400-220-603c-30-173-30-468,1-652c45-270,152-531,307-751
		c82-117,336-373,448-453c238-168,486-272,774-323c83-15,153-19,335-19c214,1,239,3,352,28c381,86,718,267,966,520
		c243,248,433,605,507,952c27,126,39,445,21,580c-74,565-361,1036-816,1340C2613,3707,2173,3820,1752,3779z M2030,2940
		c52-6,128-19,168-30c269-74,439-279,454-545l3-60l-271-3l-272-2l-10,43c-22,87-91,136-191,137c-77,0-127-18-163-58
		c-26-31-30-41-25-79c9-83,68-119,297-178c80-21,186-51,235-67c319-106,465-285,465-573c0-306-181-524-509-613c-88-24-113-26-286-26
		c-179,0-195,1-280,28c-257,78-403,205-471,408c-21,62-28,103-28,163l-1,80l272,3l273,2l6-27c20-91,55-138,126-167
		c53-22,172-21,223,3c45,20,92,70,101,107c10,39-3,95-28,121c-40,43-108,70-299,118c-303,77-427,133-520,233
		c-106,113-147,241-136,427c18,311,237,511,607,554C1875,2951,1921,2951,2030,2940z"/>
</g>
</svg>
